<?xml version="1.0" standalone="no"?><!DOCTYPE svg PUBLIC "-//W3C//DTD SVG 1.1//EN" "http://www.w3.org/Graphics/SVG/1.1/DTD/svg11.dtd"><svg t="1768307569644" class="icon" viewBox="0 0 1024 1024" version="1.1" xmlns="http://www.w3.org/2000/svg" p-id="4821" xmlns:xlink="http://www.w3.org/1999/xlink" width="200" height="200"><path d="M365.714 0h292.572Q1024 0 1024 365.714v292.572Q1024 1024 658.286 1024H365.714Q0 1024 0 658.286V365.714Q0 0 365.714 0z" fill="#E92203" opacity=".1" p-id="4822"></path><path d="M587.78 176.815c18.21-5.248 37.723-4.985 56.114-0.758 21.118 5.018 41.1 14.716 58.296 27.933 6.279 4.77 11.947 10.703 14.831 18.169 4.466 11.041 3.272 24.241-3.32 34.186-5.752 8.932-15.532 15.153-26.07 16.488-8.422 1.154-17.247-0.634-24.481-5.109-4.079-2.397-7.185-6.097-11.28-8.47-10.984-6.97-23.632-12.458-36.857-12.145-9.31 0.107-17.5 5.561-23.813 11.972-5.907 6.097-8.915 15.087-6.962 23.45 4.54 17.09 9.055 34.179 13.587 51.268 32.58 1.673 65.144 10.291 93.15 27.298 27.225 16.842 51.82 38.2 71.324 63.652 16.553 21.572 29.103 46.209 36.782 72.296 8.314 28.114 11.008 57.76 8.841 86.962-1.804 24.093-6.542 48.046-14.716 70.813-21.135 55.437-60.282 104.043-110.668 135.543-36.955 23.344-79.398 37.425-122.682 42.798-29.877 3.732-60.323 3.749-90.052-1.343-61.09-10.094-118.339-40.54-161.787-84.516-43.176-43.258-73.227-99.404-85.38-159.299-8.965-43.678-8.561-89.285 1.384-132.767 12.153-53.616 39.015-103.771 76.778-143.709 30.8-32.794 68.843-58.741 110.602-75.493 4.301-1.64 8.536-3.584 13.118-4.309 9.78-1.714 20.228 0.602 28.237 6.501 10.844 7.655 16.81 21.539 15.005 34.673-1.492 13.406-11.008 25.494-23.69 30.083-42.187 15.771-79.595 43.951-106.523 80.033-24.068 32.02-39.773 70.269-45.038 109.992-5.315 39.32-0.585 79.926 13.505 117.005 20.352 54.21 60.817 100.854 112.406 127.403 31.064 16.092 66.034 24.496 101.011 24.258 28.773-0.371 57.637-4.994 84.68-14.997 23.78-8.833 46.069-21.876 65.02-38.784 17.666-15.656 32.366-34.574 43.58-55.33 5.62-10.588 10.81-21.49 13.983-33.083 9.36-33.14 10.983-69.057 0.972-102.247-8.28-27.834-25.32-52.643-47.082-71.702-9.624-8.421-19.907-16.142-30.932-22.635-9.74-5.47-20.377-9.195-31.228-11.741 7.564 29.58 15.655 59.038 23.326 88.593 1.302 7.087 2.604 14.173 3.824 21.276 1.12 30.495-9.575 61.213-29.243 84.54-18.326 21.983-44.347 37.449-72.494 42.764-30.338 6.048-62.96 0.337-89.014-16.48-24.875-15.77-43.25-40.745-52.94-68.39-5.488-15.466-8.223-31.822-8.767-48.202-1.664-35.637 7.655-72.049 28.04-101.522 23.953-35.176 61.715-59.36 102.206-71.159-2.983-11.403-6.032-22.79-9.048-34.195-7.82-24.612-6.155-52.248 5.513-75.385 6.295-12.912 15.655-24.159 26.482-33.511 12.055-10.308 26.129-18.449 41.47-22.668m-96.676 268.08c-10.86 11.404-18.474 25.824-21.753 41.216-2.95 13.974-2.966 28.542-0.313 42.558 3.238 15.482 11.23 30.627 24.48 39.765 10.283 7.3 23.673 9.517 35.942 7.12 22.7-3.989 41.223-24.877 41.858-47.99-0.865-5.726-1.813-11.452-3.428-17.022-8.479-32.07-17.031-64.114-25.46-96.2-19.183 5.917-37.442 15.887-51.326 30.554z" fill="#E92203" p-id="4823"></path></svg>