<?xml version="1.0" standalone="no"?><!DOCTYPE svg PUBLIC "-//W3C//DTD SVG 1.1//EN" "http://www.w3.org/Graphics/SVG/1.1/DTD/svg11.dtd">
<svg t="1768310025880" class="icon" viewBox="0 0 1073 1024" version="1.1"
    xmlns="http://www.w3.org/2000/svg" p-id="6965"
    xmlns:xlink="http://www.w3.org/1999/xlink" width="209.5703125" height="200">
    <path d="M556.301354 15.047458C281.810255 4.136915 50.461265 217.801731 39.596182 492.29283c-10.910544 274.491099 202.799734 505.794628 477.245372 516.705172 274.491099 10.910544 505.794628-202.754273 516.705172-477.245372C1044.411809 257.261532 830.746992 25.912542 556.301354 15.047458z m209.937048 728.642487a29.667587 29.667587 0 0 1-29.958535 14.729234c-3.591387-0.500067-7.182775-1.682042-10.546859-3.591388-65.736027-37.414073-137.381931-61.780954-212.937448-72.418734-75.555516-10.63778-151.156493-6.955472-224.666281 10.910543a29.685771 29.685771 0 0 1-35.868413-21.866548 29.685771 29.685771 0 0 1 21.866548-35.868413c80.828946-19.638979 163.930921-23.684972 246.941976-12.001598 83.011054 11.683374 161.748812 38.459667 234.076626 79.601509a29.749416 29.749416 0 0 1 11.137846 40.505395z m65.372342-130.562842c-10.137714 18.729767-33.595383 25.730699-52.32515 15.592986-76.919334-41.596448-160.203152-68.918269-247.532964-81.192631-87.329811-12.274362-174.886926-8.955738-260.307391 9.81949-4.636981 1.000133-9.228502 1.181976-13.683641 0.545527-15.502064-2.182109-28.776559-13.729101-32.322486-29.958535-4.591521-20.820954 8.592053-41.414606 29.413008-46.006126 94.421665-20.775494 191.207281-24.457802 287.674672-10.910544 96.421931 13.547259 188.479645 43.733097 273.490966 89.739223 18.775228 10.137714 25.730699 33.549922 15.592986 52.32515z m72.464195-147.20142c-9.546726 18.366082-29.413008 27.867347-48.779223 25.139711a47.870011 47.870011 0 0 1-15.320222-4.909745c-89.557381-46.597114-186.024772-77.37394-286.72-91.512186-100.695228-14.138246-201.935982-11.137847-300.858246 8.955738-25.730699 5.227969-50.779489-11.41061-56.007459-37.095849-5.227969-25.730699 11.41061-50.779489 37.095849-56.007459 109.560044-22.230233 221.574961-25.548857 332.99889-9.91041 111.423929 15.638446 218.165416 49.733896 317.360444 101.331676 23.275827 12.092519 32.322486 40.778158 20.229967 64.053984z" fill="#15C97F" p-id="6966"></path>
</svg>